<svg width="8" height="4" viewBox="0 0 8 4" fill="none" xmlns="http://www.w3.org/2000/svg">
    <path d="M1.28954 0.335462L3.99999 3.04593L6.71044 0.335479C6.73734 0.307622 6.76952 0.285403 6.80511 0.270117C6.84069 0.254831 6.87897 0.246785 6.91769 0.246448C6.95642 0.246112 6.99483 0.253491 7.03067 0.268157C7.06652 0.282822 7.09908 0.304479 7.12647 0.331864C7.15385 0.35925 7.17551 0.391815 7.19018 0.42766C7.20484 0.463504 7.21222 0.501911 7.21188 0.540638C7.21155 0.579366 7.2035 0.617638 7.18821 0.653223C7.17293 0.688807 7.15071 0.720991 7.12285 0.747896L4.20619 3.66456C4.17911 3.69165 4.14696 3.71314 4.11158 3.7278C4.0762 3.74245 4.03828 3.75 3.99998 3.75C3.96168 3.75 3.92376 3.74245 3.88837 3.7278C3.85299 3.71314 3.82084 3.69165 3.79377 3.66456L0.877101 0.747896C0.823972 0.692887 0.794574 0.619211 0.795238 0.542737C0.795903 0.466263 0.826577 0.39311 0.880654 0.339032C0.934732 0.284955 1.00789 0.254281 1.08436 0.253616C1.16083 0.252952 1.23451 0.28235 1.28952 0.335479L1.28954 0.335462Z" fill="black"/>
</svg>
